# xmcd CD database file
#
# Track frame offsets:
#	150
#	15808
#	26960
#	41544
#	59801
#	74527
#	92942
#	110905
#	128013
#	155009
#
# Disc length: 2351 seconds
#
# Revision: 0
# Processed by: cddbd v1.5.1PL0 Copyright (c) Steve Scherf et al.
# Submitted via: CDex 1.51
#
DISCID=8e092d0a
DTITLE=Rickie Lee Jones - Rickie Lee Jones
DYEAR=1900
DGENRE=Blues
TTITLE0=Chuck E.'s in love
TTITLE1=On saturday afternoon in 1963
TTITLE2=Night train
TTITLE3=Young Blood
TTITLE4=Easy Money
TTITLE5=The last dance Texaco
TTITLE6=Danny's all-star joint
TTITLE7=Coolsville
TTITLE8=Weasel and the white boys cool
TTITLE9=Company
EXTD=
EXTT0=
EXTT1=
EXTT2=
EXTT3=
EXTT4=
EXTT5=
EXTT6=
EXTT7=
EXTT8=
EXTT9=
PLAYORDER=
